<svg width="180" height="30" viewBox="0 0 180 30" fill="none" xmlns="http://www.w3.org/2000/svg">
<path d="M24.9185 12.415L23.7941 17.6621H28.1213V21.9211H22.8742L21.6476 27.7134H17.116L18.3426 21.9211H12.1414L10.9148 27.7134H6.41732L7.64392 21.9211H2.49902V17.6621H8.56386L9.68824 12.415H4.57742V8.15597H10.6082L11.8007 2.5H16.2982L15.1057 8.15597H21.3068L22.4994 2.5H27.031L25.8384 8.15597H30.1997V12.415H24.9185ZM20.3869 12.415H14.1858L13.0614 17.6621H19.2625L20.3869 12.415Z" fill="#4A3830"/>
<path d="M48.5305 23.6929H59.2291V27.7134H43.0108V24.0336L53.6413 7.95154H43.0108V3.93103H59.2291V7.61082L48.5305 23.6929Z" fill="#4A3830"/>
<path d="M75.0104 27.9519C72.7843 27.9519 70.74 27.4294 68.8774 26.3846C67.0148 25.3397 65.5383 23.8973 64.448 22.0574C63.3577 20.1948 62.8126 18.0937 62.8126 15.7541C62.8126 13.4372 63.3577 11.3588 64.448 9.51886C65.5383 7.65625 67.0148 6.2025 68.8774 5.15762C70.74 4.11275 72.7843 3.59031 75.0104 3.59031C77.2591 3.59031 79.3035 4.11275 81.1434 5.15762C83.006 6.2025 84.4711 7.65625 85.5387 9.51886C86.629 11.3588 87.1741 13.4372 87.1741 15.7541C87.1741 18.0937 86.629 20.1948 85.5387 22.0574C84.4711 23.8973 83.006 25.3397 81.1434 26.3846C79.2808 27.4294 77.2364 27.9519 75.0104 27.9519ZM75.0104 23.6929C76.4414 23.6929 77.7021 23.3749 78.7924 22.7388C79.8827 22.0801 80.7345 21.1488 81.3478 19.9449C81.9611 18.7411 82.2677 17.3441 82.2677 15.7541C82.2677 14.164 81.9611 12.7784 81.3478 11.5973C80.7345 10.3934 79.8827 9.47343 78.7924 8.83742C77.7021 8.2014 76.4414 7.8834 75.0104 7.8834C73.5794 7.8834 72.3073 8.2014 71.1943 8.83742C70.104 9.47343 69.2522 10.3934 68.6389 11.5973C68.0256 12.7784 67.7189 14.164 67.7189 15.7541C67.7189 17.3441 68.0256 18.7411 68.6389 19.9449C69.2522 21.1488 70.104 22.0801 71.1943 22.7388C72.3073 23.3749 73.5794 23.6929 75.0104 23.6929Z" fill="#4A3830"/>
<path d="M104.897 15.5156C106.237 15.7654 107.339 16.4355 108.202 17.5258C109.065 18.6161 109.497 19.8654 109.497 21.2737C109.497 22.5458 109.179 23.6702 108.543 24.6469C107.929 25.6009 107.032 26.3505 105.851 26.8956C104.67 27.4408 103.273 27.7134 101.66 27.7134H91.4044V3.93103H101.217C102.83 3.93103 104.216 4.19225 105.374 4.71469C106.555 5.23713 107.441 5.964 108.032 6.89531C108.645 7.82661 108.952 8.88285 108.952 10.064C108.952 11.4496 108.577 12.6081 107.827 13.5394C107.1 14.4707 106.124 15.1294 104.897 15.5156ZM96.1745 13.7438H100.536C101.671 13.7438 102.546 13.4939 103.159 12.9942C103.773 12.4718 104.079 11.7335 104.079 10.7795C104.079 9.82551 103.773 9.08728 103.159 8.56484C102.546 8.0424 101.671 7.78118 100.536 7.78118H96.1745V13.7438ZM100.979 23.8292C102.137 23.8292 103.034 23.5566 103.67 23.0114C104.329 22.4663 104.658 21.694 104.658 20.6945C104.658 19.6724 104.318 18.8773 103.636 18.3095C102.955 17.7189 102.035 17.4236 100.876 17.4236H96.1745V23.8292H100.979Z" fill="#4A3830"/>
<path d="M128.563 23.1818H119.091L117.523 27.7134H112.515L121.067 3.89696H126.621L135.173 27.7134H130.13L128.563 23.1818ZM127.268 19.3657L123.827 9.41664L120.385 19.3657H127.268Z" fill="#4A3830"/>
<path d="M153.634 23.1818H144.162L142.594 27.7134H137.586L146.138 3.89696H151.692L160.244 27.7134H155.201L153.634 23.1818ZM152.339 19.3657L148.898 9.41664L145.456 19.3657H152.339Z" fill="#4A3830"/>
<path d="M178.665 4.77739L173.879 20.5324L169.995 19.4918L173.695 3.44579L178.665 4.77739ZM169.972 27.7398C169.138 27.5164 168.515 27.0788 168.101 26.4272C167.716 25.7596 167.626 25.0418 167.832 24.2738C168.038 23.5059 168.471 22.9402 169.133 22.5766C169.823 22.197 170.585 22.1189 171.418 22.3423C172.23 22.5598 172.829 23.0024 173.214 23.6701C173.606 24.3159 173.698 25.0227 173.493 25.7906C173.287 26.5585 172.85 27.1352 172.182 27.5207C171.521 27.8843 170.784 27.9573 169.972 27.7398Z" fill="#4A3830"/>
</svg>
